<mxfile host="www.draw.io" modified="2019-11-18T13:49:36.754Z" agent="Mozilla/5.0 (Windows NT 10.0; Win64; x64) AppleWebKit/537.36 (KHTML, like Gecko) Chrome/77.0.3865.120 Safari/537.36 OPR/64.0.3417.92" etag="UrihuYNchij935FsQuyq" version="12.2.6" type="github" pages="1">
  <diagram id="LT8NGlE6znpElKoow22y" name="Page-1">
    <mxGraphModel dx="2947" dy="3821" grid="1" gridSize="10" guides="1" tooltips="1" connect="1" arrows="1" fold="1" page="1" pageScale="1" pageWidth="827" pageHeight="1169" math="0" shadow="0">
      <root>
        <mxCell id="0"/>
        <mxCell id="1" parent="0"/>
        <mxCell id="SUtvQnXsfkYk7cVld-wP-1" value="" style="triangle;whiteSpace=wrap;html=1;direction=north;" parent="1" vertex="1">
          <mxGeometry x="-220.5" y="-800" width="2910" height="2000" as="geometry"/>
        </mxCell>
        <mxCell id="SUtvQnXsfkYk7cVld-wP-2" value="&lt;font style=&quot;font-size: 128px&quot;&gt;S.S. TRIANGLE&lt;/font&gt;" style="text;strokeColor=#6c8ebf;fillColor=#dae8fc;html=1;fontSize=24;fontStyle=1;verticalAlign=middle;align=center;fontFamily=Georgia;" parent="1" vertex="1">
          <mxGeometry x="560" y="-1560" width="1351" height="220" as="geometry"/>
        </mxCell>
        <mxCell id="SUtvQnXsfkYk7cVld-wP-5" value="" style="ellipse;shape=doubleEllipse;whiteSpace=wrap;html=1;aspect=fixed;fontFamily=Georgia;opacity=20;" parent="1" vertex="1">
          <mxGeometry x="757" y="-1245" width="955" height="955" as="geometry"/>
        </mxCell>
        <mxCell id="SUtvQnXsfkYk7cVld-wP-6" value="" style="edgeStyle=orthogonalEdgeStyle;rounded=0;orthogonalLoop=1;jettySize=auto;html=1;fontFamily=Georgia;" parent="1" source="SUtvQnXsfkYk7cVld-wP-2" target="SUtvQnXsfkYk7cVld-wP-5" edge="1">
          <mxGeometry relative="1" as="geometry"/>
        </mxCell>
        <UserObject label="&lt;font style=&quot;background-color: rgb(0 , 25 , 51) ; font-size: 86px&quot; color=&quot;#ffffff&quot;&gt;WIGHT&lt;/font&gt;" placeholders="1" name="Variable" id="SUtvQnXsfkYk7cVld-wP-7">
          <mxCell style="text;html=1;strokeColor=none;fillColor=none;align=center;verticalAlign=middle;whiteSpace=wrap;overflow=hidden;fontFamily=Georgia;opacity=20;" parent="1" vertex="1">
            <mxGeometry x="930.5" y="-1140" width="610" height="140" as="geometry"/>
          </mxCell>
        </UserObject>
        <mxCell id="SUtvQnXsfkYk7cVld-wP-8" value="" style="ellipse;shape=doubleEllipse;whiteSpace=wrap;html=1;aspect=fixed;fontFamily=Georgia;opacity=20;" parent="1" vertex="1">
          <mxGeometry x="-808" y="612.5" width="1175" height="1175" as="geometry"/>
        </mxCell>
        <UserObject label="&lt;font style=&quot;font-size: 80px&quot;&gt;BLACK&lt;/font&gt;" placeholders="1" name="Variable" id="SUtvQnXsfkYk7cVld-wP-14">
          <mxCell style="text;html=1;strokeColor=none;fillColor=none;align=center;verticalAlign=middle;whiteSpace=wrap;overflow=hidden;fontFamily=Georgia;opacity=20;" parent="1" vertex="1">
            <mxGeometry x="-550.5" y="694" width="660" height="106" as="geometry"/>
          </mxCell>
        </UserObject>
        <mxCell id="SUtvQnXsfkYk7cVld-wP-15" value="" style="ellipse;shape=doubleEllipse;whiteSpace=wrap;html=1;aspect=fixed;fontFamily=Georgia;opacity=20;" parent="1" vertex="1">
          <mxGeometry x="2066.5" y="554.5" width="1233" height="1233" as="geometry"/>
        </mxCell>
        <UserObject label="&lt;font style=&quot;font-size: 68px ; background-color: rgb(0 , 0 , 153)&quot; color=&quot;#ffff33&quot;&gt;YELLOW&lt;/font&gt;" placeholders="1" name="Variable" id="SUtvQnXsfkYk7cVld-wP-16">
          <mxCell style="text;html=1;strokeColor=none;fillColor=none;align=center;verticalAlign=middle;whiteSpace=wrap;overflow=hidden;fontFamily=Georgia;opacity=20;" parent="1" vertex="1">
            <mxGeometry x="2473" y="677" width="420" height="123" as="geometry"/>
          </mxCell>
        </UserObject>
        <UserObject label="&lt;font style=&quot;font-size: 91px&quot;&gt;FAT&lt;/font&gt;" placeholders="1" name="Variable" id="glAQ6yH-N_NOaPnOlpz6-1">
          <mxCell style="text;html=1;strokeColor=none;fillColor=none;align=center;verticalAlign=middle;whiteSpace=wrap;overflow=hidden;fontSize=51;fontFamily=Verdana;" parent="1" vertex="1">
            <mxGeometry x="-379" y="915.5" width="317" height="139" as="geometry"/>
          </mxCell>
        </UserObject>
        <mxCell id="glAQ6yH-N_NOaPnOlpz6-2" value="BONES" style="text;html=1;strokeColor=none;fillColor=none;align=center;verticalAlign=middle;whiteSpace=wrap;rounded=0;fontFamily=Verdana;fontSize=93;" parent="1" vertex="1">
          <mxGeometry x="2508" y="869.5" width="350" height="231" as="geometry"/>
        </mxCell>
        <mxCell id="glAQ6yH-N_NOaPnOlpz6-3" value="MEAT" style="text;html=1;strokeColor=none;fillColor=none;align=center;verticalAlign=middle;whiteSpace=wrap;rounded=0;fontFamily=Verdana;fontSize=93;" parent="1" vertex="1">
          <mxGeometry x="1074.5" y="-997.5" width="320" height="230" as="geometry"/>
        </mxCell>
        <mxCell id="glAQ6yH-N_NOaPnOlpz6-4" value="" style="endArrow=none;html=1;fontFamily=Verdana;fontSize=93;" parent="1" edge="1">
          <mxGeometry width="50" height="50" relative="1" as="geometry">
            <mxPoint x="-740" y="2030" as="sourcePoint"/>
            <mxPoint x="-690" y="1980" as="targetPoint"/>
          </mxGeometry>
        </mxCell>
        <mxCell id="glAQ6yH-N_NOaPnOlpz6-5" value="" style="endArrow=none;html=1;fontFamily=Verdana;fontSize=96;spacing=8;strokeWidth=48;fillColor=#a0522d;strokeColor=#6D1F00;" parent="1" edge="1">
          <mxGeometry width="50" height="50" relative="1" as="geometry">
            <mxPoint x="-280" y="-5" as="sourcePoint"/>
            <mxPoint x="2890" y="-5" as="targetPoint"/>
          </mxGeometry>
        </mxCell>
        <mxCell id="glAQ6yH-N_NOaPnOlpz6-6" value="Text" style="text;html=1;strokeColor=none;fillColor=none;align=center;verticalAlign=middle;whiteSpace=wrap;rounded=0;fontFamily=Verdana;fontSize=96;" parent="1" vertex="1">
          <mxGeometry x="-740" y="2060" width="40" height="20" as="geometry"/>
        </mxCell>
        <mxCell id="glAQ6yH-N_NOaPnOlpz6-7" value="UNDERMAN" style="text;html=1;strokeColor=none;fillColor=none;align=center;verticalAlign=middle;whiteSpace=wrap;rounded=0;fontFamily=Verdana;fontSize=96;" parent="1" vertex="1">
          <mxGeometry x="875" y="118.5" width="860" height="163" as="geometry"/>
        </mxCell>
        <mxCell id="glAQ6yH-N_NOaPnOlpz6-17" value="EveryThing do right" style="text;html=1;strokeColor=none;fillColor=none;align=center;verticalAlign=middle;whiteSpace=wrap;rounded=0;fontFamily=Verdana;fontSize=96;" parent="1" vertex="1">
          <mxGeometry x="2290" y="1350" width="750" height="220" as="geometry"/>
        </mxCell>
        <mxCell id="glAQ6yH-N_NOaPnOlpz6-18" value="everything do wrong" style="text;html=1;strokeColor=none;fillColor=none;align=center;verticalAlign=middle;whiteSpace=wrap;rounded=0;fontFamily=Verdana;fontSize=96;" parent="1" vertex="1">
          <mxGeometry x="-516" y="1350" width="454" height="230" as="geometry"/>
        </mxCell>
        <mxCell id="1XdzfJ1H1NdVFhDWP_ct-1" value="" style="verticalLabelPosition=bottom;verticalAlign=top;html=1;shape=mxgraph.basic.8_point_star" vertex="1" parent="1">
          <mxGeometry x="-756" y="915.5" width="480" height="479" as="geometry"/>
        </mxCell>
        <mxCell id="1XdzfJ1H1NdVFhDWP_ct-2" value="&lt;h3&gt;&lt;font style=&quot;font-size: 53px&quot;&gt;kind of thinking&lt;/font&gt;&lt;/h3&gt;" style="text;html=1;strokeColor=#666666;fillColor=#f5f5f5;align=center;verticalAlign=middle;whiteSpace=wrap;rounded=0;gradientColor=#b3b3b3;" vertex="1" parent="1">
          <mxGeometry x="-620" y="1091" width="220" height="140" as="geometry"/>
        </mxCell>
        <mxCell id="1XdzfJ1H1NdVFhDWP_ct-3" value="" style="html=1;shadow=0;dashed=0;align=center;verticalAlign=middle;shape=mxgraph.arrows2.arrow;dy=0.6;dx=40;notch=15;" vertex="1" parent="1">
          <mxGeometry x="2713" y="1060" width="537" height="300" as="geometry"/>
        </mxCell>
        <mxCell id="1XdzfJ1H1NdVFhDWP_ct-4" value="&lt;h4&gt;&lt;font style=&quot;font-size: 61px&quot; face=&quot;Comic Sans MS&quot;&gt;kind of thinking&lt;/font&gt;&lt;/h4&gt;" style="text;html=1;strokeColor=#82b366;fillColor=#d5e8d4;align=center;verticalAlign=middle;whiteSpace=wrap;rounded=0;" vertex="1" parent="1">
          <mxGeometry x="2750" y="1160" width="470" height="100" as="geometry"/>
        </mxCell>
      </root>
    </mxGraphModel>
  </diagram>
</mxfile>
